<svg xmlns="http://www.w3.org/2000/svg" width="756" height="300" viewBox="0 0 756 300" font-family="-apple-system, BlinkMacSystemFont, 'SF Pro Text', Helvetica, Arial, sans-serif">
<rect width="756" height="300" rx="20" fill="#0A0A10"/>
<g transform="translate(40 40)">
<rect width="220" height="220" rx="26" fill="#FFFFFF" fill-opacity="0.08"/>
<rect x="0.5" y="0.5" width="219" height="219" rx="25.5" fill="none" stroke="#FFFFFF" stroke-opacity="0.14"/>
<svg x="22" y="22" width="176" height="176" viewBox="0 0 48 48" fill="none">
<g clip-path="url(#clip0_1_2)">
<rect width="48" height="48" rx="12" fill="url(#paint0_linear_1_2)"/>
<path fill-rule="evenodd" clip-rule="evenodd" d="M24 10C16.268 10 10 16.268 10 24C10 31.732 16.268 38 24 38C31.732 38 38 31.732 38 24C38 16.268 31.732 10 24 10ZM24 16C19.5817 16 16 19.5817 16 24C16 28.4183 19.5817 32 24 32C28.4183 32 32 28.4183 32 24C32 19.5817 28.4183 16 24 16Z" fill="white"/>
<circle cx="24" cy="24" r="5" fill="url(#paint1_radial_1_2)"/>
</g>
<defs>
<linearGradient id="paint0_linear_1_2" x1="0" y1="0" x2="48" y2="48" gradientUnits="userSpaceOnUse">
<stop stop-color="#FF5F6D"/>
<stop offset="1" stop-color="#FFC371"/>
</linearGradient>
<radialGradient id="paint1_radial_1_2" cx="0" cy="0" r="1" gradientUnits="userSpaceOnUse" gradientTransform="translate(24 24) rotate(90) scale(5)">
<stop stop-color="white"/>
<stop offset="1" stop-color="white" stop-opacity="0.15"/>
</radialGradient>
<clipPath id="clip0_1_2">
<rect width="48" height="48" fill="white"/>
</clipPath>
</defs>

</svg>
</g>
<g font-size="15" fill="#FFFFFF">
<text x="300" y="78" font-weight="600">Drawn as exported</text>
<g fill-opacity="0.6" font-size="14">
<text x="300" y="112">linear gradient — the tile</text>
<text x="300" y="138">radial gradient with a transform — the highlight</text>
<text x="300" y="164">fill-rule="evenodd" — the ring's hole</text>
<text x="300" y="190">clip-path around the artboard — dropped, it clips nothing</text>
<text x="300" y="216">defs at the end of the file — resolved after parsing</text>
</g></g>
</svg>
